<svg xmlns="http://www.w3.org/2000/svg" version="1.1" xmlns:xlink="http://www.w3.org/1999/xlink" xmlns:svgjs="http://svgjs.dev/svgjs" width="2000" height="1250" viewBox="0 0 2000 1250"><g transform="matrix(1,0,0,1,0,0)"><svg viewBox="0 0 576 360" data-background-color="#ffffff" preserveAspectRatio="xMidYMid meet" height="1250" width="2000" xmlns="http://www.w3.org/2000/svg" xmlns:xlink="http://www.w3.org/1999/xlink"><g id="tight-bounds" transform="matrix(1,0,0,1,0,0)"><svg viewBox="0 0 576 360" height="360" width="576"><g><svg></svg></g><g><svg viewBox="0 0 576 360" height="360" width="576"><g><path d="M132.115 90l155.885-90 155.885 90v180l-155.885 90-155.885-90z" fill="#9763ca" fill-rule="nonzero" stroke="none" stroke-width="1" stroke-linecap="butt" stroke-linejoin="miter" stroke-miterlimit="10" stroke-dasharray="" stroke-dashoffset="0" font-family="none" font-weight="none" font-size="none" text-anchor="none" style="mix-blend-mode: normal" data-fill-palette-color="tertiary"></path></g><g transform="matrix(1,0,0,1,236.71862068965515,99)"><svg viewBox="0 0 102.56275862068966 162" height="162" width="102.56275862068966"><g><svg viewBox="0 0 102.56275862068966 162" height="162" width="102.56275862068966"><g><svg viewBox="0 0 102.56275862068966 162" height="162" width="102.56275862068966"><g><svg viewBox="0 0 102.56275862068966 162" height="162" width="102.56275862068966"><g id="textblocktransform"><svg viewBox="0 0 102.56275862068966 162" height="162" width="102.56275862068966" id="textblock"><g><svg viewBox="0 0 102.56275862068966 162" height="162" width="102.56275862068966"><g transform="matrix(1,0,0,1,0,0)"><svg width="102.56275862068966" viewBox="4.45 -36.25 22.95 36.25" height="162" data-palette-color="#ffffff"><path d="M14.3-31.3L9.95-31.3 9.95-20.6 14.85-20.6Q17.55-20.6 18.9-22.2 20.25-23.8 20.25-26.1L20.25-26.1Q20.25-28.8 18.63-30.05 17-31.3 14.3-31.3L14.3-31.3ZM14.4-15.95L9.95-15.95 9.95-4.95 15.05-4.95Q16.5-4.95 17.78-5.3 19.05-5.65 20-6.33 20.95-7 21.5-8.05 22.05-9.1 22.05-10.5L22.05-10.5Q22.05-12.05 21.4-13.08 20.75-14.1 19.68-14.75 18.6-15.4 17.23-15.68 15.85-15.95 14.4-15.95L14.4-15.95ZM15.5 0L4.45 0 4.45-36.25 14.05-36.25Q16.7-36.25 18.85-35.73 21-35.2 22.5-34.08 24-32.95 24.83-31.18 25.65-29.4 25.65-26.85L25.65-26.85Q25.65-25.45 25.38-24.1 25.1-22.75 24.48-21.63 23.85-20.5 22.83-19.65 21.8-18.8 20.3-18.35L20.3-18.35Q21.6-18.1 22.88-17.5 24.15-16.9 25.15-15.88 26.15-14.85 26.78-13.35 27.4-11.85 27.4-9.8L27.4-9.8Q27.4-7.2 26.4-5.35 25.4-3.5 23.75-2.3 22.1-1.1 19.95-0.55 17.8 0 15.5 0L15.5 0Z" opacity="1" transform="matrix(1,0,0,1,0,0)" fill="#ffffff" class="undefined-text-0" data-fill-palette-color="quaternary" id="text-0"></path></svg></g></svg></g></svg></g></svg></g><g></g></svg></g></svg></g></svg></g></svg></g><defs></defs></svg><rect width="576" height="360" fill="none" stroke="none" visibility="hidden"></rect></g></svg></g></svg>